{
	"asset":{
		"generator":"Khronos glTF Blender I/O v3.6.28",
		"version":"2.0"
	},
	"scene":0,
	"scenes":[
		{
			"name":"Scene",
			"nodes":[
				0
			]
		}
	],
	"nodes":[
		{
			"mesh":0,
			"name":"AmberBody-vb0=caddc4c6.txt",
			"rotation":[
				0.7071068286895752,
				0,
				0,
				0.7071068286895752
			]
		}
	],
	"materials":[
		{
			"doubleSided":true,
			"name":"AmberBody-vb0=caddc4c6.txt",
			"pbrMetallicRoughness":{
				"baseColorTexture":{
					"index":0
				},
				"metallicFactor":0,
				"roughnessFactor":0.5
			}
		},
		{
			"doubleSided":true,
			"name":"AmberHead-vb0=caddc4c6.txt",
			"pbrMetallicRoughness":{
				"baseColorTexture":{
					"index":1
				},
				"metallicFactor":0,
				"roughnessFactor":0.5
			}
		}
	],
	"meshes":[
		{
			"name":"AmberBody-vb0=caddc4c6.txt",
			"primitives":[
				{
					"attributes":{
						"COLOR_0":0,
						"POSITION":1,
						"NORMAL":2,
						"TEXCOORD_0":3
					},
					"indices":4,
					"material":0
				},
				{
					"attributes":{
						"COLOR_0":5,
						"POSITION":6,
						"NORMAL":7,
						"TEXCOORD_0":8
					},
					"indices":9,
					"material":1
				}
			]
		}
	],
	"textures":[
		{
			"sampler":0,
			"source":0
		},
		{
			"sampler":0,
			"source":1
		}
	],
	"images":[
		{
			"bufferView":5,
			"mimeType":"image/png",
			"name":"AmberBodyDiffuse"
		},
		{
			"bufferView":11,
			"mimeType":"image/png",
			"name":"AmberHeadDiffuse"
		}
	],
	"accessors":[
		{
			"bufferView":0,
			"componentType":5123,
			"count":8924,
			"normalized":true,
			"type":"VEC4"
		},
		{
			"bufferView":1,
			"componentType":5126,
			"count":8924,
			"max":[
				0.41635599732398987,
				0.15581399202346802,
				0.0077414000406861305
			],
			"min":[
				-0.41635599732398987,
				-0.1904570758342743,
				-1.675443172454834
			],
			"type":"VEC3"
		},
		{
			"bufferView":2,
			"componentType":5126,
			"count":8924,
			"type":"VEC3"
		},
		{
			"bufferView":3,
			"componentType":5126,
			"count":8924,
			"type":"VEC2"
		},
		{
			"bufferView":4,
			"componentType":5123,
			"count":32310,
			"type":"SCALAR"
		},
		{
			"bufferView":6,
			"componentType":5123,
			"count":1493,
			"normalized":true,
			"type":"VEC4"
		},
		{
			"bufferView":7,
			"componentType":5126,
			"count":1493,
			"max":[
				0.2606513202190399,
				0.14127612113952637,
				-0.9416663646697998
			],
			"min":[
				-0.27931568026542664,
				-0.2432807832956314,
				-1.5454444885253906
			],
			"type":"VEC3"
		},
		{
			"bufferView":8,
			"componentType":5126,
			"count":1493,
			"type":"VEC3"
		},
		{
			"bufferView":9,
			"componentType":5126,
			"count":1493,
			"type":"VEC2"
		},
		{
			"bufferView":10,
			"componentType":5123,
			"count":5670,
			"type":"SCALAR"
		}
	],
	"bufferViews":[
		{
			"buffer":0,
			"byteLength":71392,
			"byteOffset":0,
			"target":34962
		},
		{
			"buffer":0,
			"byteLength":107088,
			"byteOffset":71392,
			"target":34962
		},
		{
			"buffer":0,
			"byteLength":107088,
			"byteOffset":178480,
			"target":34962
		},
		{
			"buffer":0,
			"byteLength":71392,
			"byteOffset":285568,
			"target":34962
		},
		{
			"buffer":0,
			"byteLength":64620,
			"byteOffset":356960,
			"target":34963
		},
		{
			"buffer":0,
			"byteLength":656402,
			"byteOffset":421580
		},
		{
			"buffer":0,
			"byteLength":11944,
			"byteOffset":1077984,
			"target":34962
		},
		{
			"buffer":0,
			"byteLength":17916,
			"byteOffset":1089928,
			"target":34962
		},
		{
			"buffer":0,
			"byteLength":17916,
			"byteOffset":1107844,
			"target":34962
		},
		{
			"buffer":0,
			"byteLength":11944,
			"byteOffset":1125760,
			"target":34962
		},
		{
			"buffer":0,
			"byteLength":11340,
			"byteOffset":1137704,
			"target":34963
		},
		{
			"buffer":0,
			"byteLength":245388,
			"byteOffset":1149044
		}
	],
	"samplers":[
		{
			"magFilter":9729,
			"minFilter":9987
		}
	],
	"buffers":[
		{
			"byteLength":1394432,
			"uri":"data:application/octet-stream;base64,"
		}
	]
}
